<?xml version="1.0" encoding="UTF-8"?>
<svg version="1.1" xmlns="http://www.w3.org/2000/svg" width="1024" height="1024">
<path d="M0 0 C337.92 0 675.84 0 1024 0 C1024 337.92 1024 675.84 1024 1024 C686.08 1024 348.16 1024 0 1024 C0 686.08 0 348.16 0 0 Z " fill="#FEFEFD" transform="translate(0,0)"/>
<path d="M0 0 C3.51488966 0.01089469 7.02974169 0.01041548 10.54464531 0.01001167 C42.02286873 0.01072016 72.86826375 0.92459992 103.93145752 6.44561768 C104.80298462 6.59901611 105.67451172 6.75241455 106.57244873 6.91046143 C118.53917044 9.03154847 130.27271922 11.35629204 141.75372314 15.42755127 C144.1090919 16.25826765 146.47869976 17.03506432 148.85333252 17.80889893 C173.36036642 25.91966696 196.73159701 37.3387074 217.33721924 52.9866333 C218.95299671 54.21195184 220.58344646 55.41548153 222.21661377 56.61749268 C230.29204019 62.62152719 237.70206468 69.20357836 244.93145752 76.19561768 C245.58614014 76.82838623 246.24082275 77.46115479 246.91534424 78.11309814 C255.11436924 86.08056678 262.98338019 94.09252171 269.93145752 103.19561768 C270.85942964 104.37172514 271.78784472 105.54748319 272.71661377 106.72296143 C314.84389755 160.71660126 331.54589194 228.33660462 338.93145752 295.19561768 C339.00771362 295.87169067 339.08396973 296.54776367 339.16253662 297.24432373 C343.9856976 340.44362437 343.18467019 384.88807642 341.05645752 428.25811768 C341.01743317 429.06884735 340.97840881 429.87957703 340.9382019 430.71487427 C340.53167473 438.77493084 339.84861561 446.67567377 338.39532471 454.62750244 C337.76438714 458.12057207 337.37637132 461.60398465 336.99395752 465.13311768 C329.44573154 531.36635482 311.33509886 601.47742301 266.93145752 653.19561768 C266.10130127 654.20753174 265.27114502 655.2194458 264.41583252 656.26202393 C252.97674979 670.08666917 240.30986083 683.40668737 225.93145752 694.19561768 C225.40084717 694.60263916 224.87023682 695.00966064 224.32354736 695.42901611 C202.1345107 712.43369842 178.14330147 725.4239746 151.93145752 735.19561768 C150.80707275 735.62922607 149.68268799 736.06283447 148.52423096 736.50958252 C138.23665014 740.45472521 127.68586101 742.89181042 116.93145752 745.19561768 C115.79450439 745.44489014 114.65755127 745.6941626 113.48614502 745.95098877 C98.16430548 749.25855397 82.92013969 751.67668503 67.29083252 752.85577393 C66.06071756 752.95063615 66.06071756 752.95063615 64.8057518 753.04741478 C43.90509146 754.61960788 23.0109088 754.61345262 2.06304932 754.51818848 C-1.97554178 754.50466092 -6.01402479 754.51004955 -10.05262852 754.51504421 C-30.46309824 754.53423315 -50.76378549 754.51910877 -71.06854248 752.19561768 C-71.86051025 752.10891815 -72.65247803 752.02221863 -73.46844482 751.93289185 C-78.45311602 751.37986385 -83.41801364 750.72867083 -88.38104248 750.00811768 C-89.46920258 749.85296188 -89.46920258 749.85296188 -90.5793457 749.69467163 C-113.17887402 746.43251454 -136.02447737 741.17523327 -157.06854248 732.19561768 C-157.84181885 731.86658447 -158.61509521 731.53755127 -159.4118042 731.19854736 C-181.33685472 721.72956039 -201.12224385 710.787637 -220.06854248 696.19561768 C-220.87678467 695.58331299 -221.68502686 694.9710083 -222.51776123 694.34014893 C-274.81047519 653.80249133 -308.11458221 592.60737846 -322.94354248 528.82061768 C-323.11018402 528.1098407 -323.27682556 527.39906372 -323.44851685 526.66674805 C-329.98492844 498.59207158 -334.80918438 469.93656882 -337.06854248 441.19561768 C-337.17005615 439.98647705 -337.27156982 438.77733643 -337.37615967 437.53155518 C-343.26529078 364.55834691 -341.42595846 285.97219974 -321.06854248 215.19561768 C-320.78784912 214.207229 -320.50715576 213.21884033 -320.21795654 212.20050049 C-308.17717802 170.24252836 -289.37565526 129.84073494 -260.47894287 96.81060791 C-259.48487378 95.67234116 -258.4977 94.52803441 -257.51556396 93.37945557 C-246.2327629 80.27161597 -233.87476621 67.59384845 -219.81561279 57.45977783 C-217.96179569 56.11837692 -216.13715239 54.74200966 -214.31072998 53.36358643 C-197.75196109 41.07327315 -179.3287043 30.61569851 -160.06854248 23.19561768 C-159.25917236 22.87931396 -158.44980225 22.56301025 -157.61590576 22.23712158 C-136.91948695 14.2168282 -115.99209598 8.61849574 -94.06854248 5.19561768 C-93.187146 5.055271 -92.30574951 4.91492432 -91.39764404 4.77032471 C-61.13533329 0.06297736 -30.54743404 -0.11939573 0 0 Z " fill="#000000" transform="translate(510.06854248046875,134.80438232421875)"/>
<path d="M0 0 C0.80566406 0.12358887 1.61132812 0.24717773 2.44140625 0.37451172 C40.44946548 6.28639876 75.4202775 26.03393079 98.6875 57.0625 C118.72110912 84.97037961 126.91609045 117.88733063 132.1875 151.25 C132.37788345 152.43665253 132.37788345 152.43665253 132.57211304 153.64727783 C136.64704537 179.31273349 137.37652391 204.88451064 137.3125 230.8125 C137.31027825 232.4012654 137.3081017 233.99003086 137.30596924 235.57879639 C137.26396874 258.15952176 137.05364536 280.58898567 134 303 C133.90289734 303.73152283 133.80579468 304.46304565 133.70574951 305.21673584 C129.62335306 335.83025691 123.9724845 366.18210382 110 394 C109.6169873 394.7636084 109.23397461 395.5272168 108.83935547 396.31396484 C92.4000839 428.44299712 64.38445944 453.64412821 30.02734375 465.046875 C14.15137706 470.06559044 -0.92180797 473.0783743 -17.59765625 473.2734375 C-18.58205688 473.28592026 -19.56645752 473.29840302 -20.58068848 473.31126404 C-60.85442953 473.72389183 -60.85442953 473.72389183 -80 468 C-80.71655762 467.80245117 -81.43311523 467.60490234 -82.17138672 467.40136719 C-116.71170916 457.84397331 -146.22376313 434.0391722 -163.8125 403 C-168.09153807 395.23893408 -171.61207766 387.18080986 -175 379 C-175.37769531 378.1440625 -175.75539063 377.288125 -176.14453125 376.40625 C-187.10971359 350.8936345 -190.53436328 320.63033808 -192.81188965 293.19393921 C-192.94921544 291.59230252 -193.0942389 289.99132049 -193.24377441 288.39077759 C-194.85355039 271.12879831 -195.31761651 253.96255197 -195.26074219 236.64086914 C-195.24933745 233.13655943 -195.25614178 229.63255337 -195.26762581 226.12825394 C-195.31513457 209.00186729 -194.70941179 192.05013177 -193 175 C-192.87274425 173.66563755 -192.74575229 172.33124989 -192.61914062 170.99682617 C-192.31615964 167.95200178 -191.98347781 164.91373676 -191.625 161.875 C-191.4997998 160.8120874 -191.37459961 159.7491748 -191.24560547 158.65405273 C-185.93879318 115.19686997 -174.26699223 73.01815121 -143 41 C-142.28585937 40.22398437 -141.57171875 39.44796875 -140.8359375 38.6484375 C-120.54202736 17.1384129 -93.23487694 7.03848132 -65 1 C-63.77748535 0.72833008 -63.77748535 0.72833008 -62.53027344 0.45117188 C-42.36333199 -3.86065545 -20.29023039 -3.35860599 0 0 Z " fill="#FEFEFC" transform="translate(541,275)"/>
</svg>
