<svg xmlns="http://www.w3.org/2000/svg" version="1.1" viewBox="84.31004497751124 23.025 234.48275862068962 247.79999999999998" style="max-height: 500px" width="234.48275862068962" height="247.79999999999998">
<path transform="translate(0,0)" fill="#FEFEFE" d="M0 0 C132 0 264 0 400 0 C400 99 400 198 400 300 C268 300 136 300 0 300 C0 201 0 102 0 0 Z"/>
<path transform="translate(200.3125,55.5625)" fill="#FCFCFC" d="M0 0 C1.76984253 0.01244751 1.76984253 0.01244751 3.57543945 0.02514648 C28.23158329 0.50063728 47.98320844 10.78346303 65.6875 27.4375 C66.30367187 27.97761719 66.91984375 28.51773438 67.5546875 29.07421875 C81.34905044 41.69256457 90.81142526 63.0721224 91.86328125 81.52050781 C92.82814385 105.91085585 89.81833592 129.10318032 73.03515625 148.07421875 C65.02792492 156.1347428 55.79985159 162.5271222 44.6875 165.4375 C43.3675 165.4375 42.0475 165.4375 40.6875 165.4375 C40.6875 166.4275 40.6875 167.4175 40.6875 168.4375 C42.9975 169.0975 45.3075 169.7575 47.6875 170.4375 C39.73961616 179.83552405 20.27228102 182.88689868 8.6875 184.4375 C-19.91654131 185.68620434 -42.95733003 177.10352972 -64.58984375 158.4765625 C-79.89481472 144.1111046 -90.47934936 122.32709563 -91.453125 101.41796875 C-92.12233127 78.39727316 -90.26531791 59.93771448 -74.875 41.9375 C-70.76857447 37.64122261 -66.47219538 34.3633714 -61.3125 31.4375 C-60.15814453 30.76074219 -60.15814453 30.76074219 -58.98046875 30.0703125 C-46.11522752 23.04535041 -30.47067421 21.0826245 -16.25390625 24.859375 C-15.61324219 25.05015625 -14.97257812 25.2409375 -14.3125 25.4375 C-13.27416016 25.72367188 -13.27416016 25.72367188 -12.21484375 26.015625 C-10.57568998 26.4718507 -8.94315514 26.95177294 -7.3125 27.4375 C-6.9825 26.1175 -6.6525 24.7975 -6.3125 23.4375 C-7.66379647 22.95029787 -9.01874316 22.47321816 -10.375 22 C-11.12910156 21.73316406 -11.88320312 21.46632813 -12.66015625 21.19140625 C-27.52912761 16.96502706 -45.24010284 18.19266987 -58.9375 25.1875 C-59.73414063 25.63609375 -60.53078125 26.0846875 -61.3515625 26.546875 C-62.32222656 26.98773438 -62.32222656 26.98773438 -63.3125 27.4375 C-63.9725 27.1075 -64.6325 26.7775 -65.3125 26.4375 C-46.78257842 9.87595837 -25.28156694 -0.23177355 0 0 Z"/>
<path transform="translate(200.3125,55.5625)" fill="#020202" d="M0 0 C1.76984253 0.01244751 1.76984253 0.01244751 3.57543945 0.02514648 C28.23158329 0.50063728 47.98320844 10.78346303 65.6875 27.4375 C66.30367187 27.97761719 66.91984375 28.51773438 67.5546875 29.07421875 C81.34905044 41.69256457 90.81142526 63.0721224 91.86328125 81.52050781 C92.82814385 105.91085585 89.81833592 129.10318032 73.03515625 148.07421875 C59.85050676 161.34661965 43.05178812 168.3888981 24.3125 168.75 C6.03567512 168.75 -8.90691842 162.04646438 -22.2265625 149.61328125 C-24.4161 147.32943783 -26.3766348 144.93835753 -28.3125 142.4375 C-27.9825 141.7775 -27.6525 141.1175 -27.3125 140.4375 C-26.71824219 140.83582031 -26.12398437 141.23414063 -25.51171875 141.64453125 C-15.38219314 148.1192358 -5.36625619 150.85238786 6.6875 149.4375 C19.84243239 146.49602443 30.80854802 140.61496363 38.25390625 129.02734375 C46.91042791 113.38899535 46.42289279 95.32791172 41.6875 78.4375 C35.13156839 57.63044375 22.09533288 37.8975877 2.45654297 27.55078125 C-13.91804401 19.27399722 -32.72719481 16.2148795 -50.65234375 21.43359375 C-54.38637362 22.84276508 -57.87617123 24.58985855 -61.3515625 26.546875 C-62.32222656 26.98773438 -62.32222656 26.98773438 -63.3125 27.4375 C-63.9725 27.1075 -64.6325 26.7775 -65.3125 26.4375 C-46.78257842 9.87595837 -25.28156694 -0.23177355 0 0 Z"/>
<path transform="translate(197,85)" fill="#030303" d="M0 0 C0.99 0.99 0.99 0.99 2 2 C0.948125 2.32871094 0.948125 2.32871094 -0.125 2.6640625 C-16.02122939 7.97720439 -24.70622409 19.77482685 -32.29711914 34.18115234 C-41.20624915 52.06385453 -44.63789886 74.42011547 -39.3125 93.875 C-32.63521194 113.15975503 -20.46498822 128.4477972 -1.984375 137.47265625 C12.41418227 143.80432951 29.79631796 145.65103557 45.125 141.33984375 C47.35496906 140.93566186 48.86032559 141.31702357 51 142 C41.89520184 146.92600022 33.14094222 150.603269 23 153 C21.65035156 153.33837891 21.65035156 153.33837891 20.2734375 153.68359375 C-2.33616903 158.63584896 -26.63166311 153.2027617 -46 141 C-66.42895871 127.00836784 -81.33597371 107.42230689 -87 83 C-90.77306157 60.08308239 -89.24779231 37.42539759 -76 18 C-70.87460333 11.28427634 -65.34382549 6.16441038 -58 2 C-56.84564453 1.32324219 -56.84564453 1.32324219 -55.66796875 0.6328125 C-38.03539188 -8.99531509 -17.99148291 -7.87319594 0 0 Z"/>
<path transform="translate(147,72)" fill="#1D1D1D" d="M0 0 C0.66 0.33 1.32 0.66 2 1 C2.625 3.0625 2.625 3.0625 3 5 C-2 7 -7 9 -12 11 C-8.19588166 7.08060535 -4.18423892 3.50897269 0 0 Z"/>
<path transform="translate(172,196)" fill="#1B1B1B" d="M0 0 C2.97 1.65 5.94 3.3 9 5 C8.67 6.65 8.34 8.3 8 10 C4.82537057 7.59757773 2.14248259 5.38286724 0 2 C0 1.34 0 0.68 0 0 Z"/>
</svg>